<svg width="56" height="56" viewBox="0 0 56 56" fill="none" xmlns="http://www.w3.org/2000/svg">
<g clip-path="url(#clip0_25_142)">
<path d="M14.9421 31.131V11.762H20.8547V31.131H14.9421ZM28.3704 16.9397C29.0436 16.249 29.3807 15.4277 29.3807 14.4757C29.3807 13.5225 29.0436 12.7088 28.3704 12.035C27.6966 11.3619 26.9167 11.0247 26.0301 11.0247H14.7927V5.25671H26.0301C28.5921 5.25671 30.7766 6.15271 32.5844 7.94471C34.3916 9.73555 35.2957 11.9125 35.2957 14.4757C35.2957 17.0377 34.3916 19.2229 32.5844 21.03C30.7766 22.836 28.5921 23.739 26.0301 23.739H21.5944V17.9734H26.0301C26.9167 17.9734 27.6966 17.6292 28.3704 16.9397Z" fill="#343434"/>
<path d="M27.52 50.3888H21.6073V40.9272H27.52V50.3888ZM34.1723 40.1875H21.458V34.4218H34.1723V40.1875ZM27.52 33.6822H21.6073V24.5145H27.52V33.6822ZM34.912 24.5145H40.827V50.3888H34.912V24.5145Z" fill="#3174A0"/>
</g>
<defs>
<clipPath id="clip0_25_142">
<rect width="56" height="56" fill="white"/>
</clipPath>
</defs>
</svg>
